<?xml version="1.0" encoding="UTF-8" standalone="no"?>
<!-- Created with Inkscape (http://www.inkscape.org/) -->

<svg
   width="210mm"
   height="297mm"
   viewBox="0 0 210 297"
   version="1.1"
   id="svg1432"
   xmlns="http://www.w3.org/2000/svg"
   xmlns:svg="http://www.w3.org/2000/svg">
  <defs
     id="defs1429" />
  <g
     id="layer1">
    <g
       id="g1890"
       transform="matrix(2.4169423,0,0,2.7679102,-147.40447,-210.64507)">
      <path
         style="fill:#b9b9b9;fill-opacity:1;stroke-width:0.386483"
         d="m 117.81009,151.99519 c -7.97522,-1.18235 -13.44111,-3.22067 -19.686438,-7.34141 -0.855112,-0.56421 -0.978364,-0.41046 5.801898,-7.23751 l 2.53675,-2.55427 1.622,1.05756 c 8.65038,5.64013 23.85548,6.67806 23.85548,1.62843 0,-2.56194 -1.49155,-3.27457 -11.4261,-5.45922 -9.41635,-2.0707 -13.30404,-3.63441 -16.53136,-6.64927 -3.01209,-2.81379 -3.77836,-4.91247 -3.55266,-9.73007 0.13616,-2.90635 0.35434,-3.77292 1.46602,-5.82269 2.30824,-4.25605 6.9906,-7.32714 13.42093,-8.80257 4.26782,-0.97925 12.76655,-0.80194 17.98976,0.37533 3.78804,0.85378 9.81544,3.245 12.33178,4.89232 l 1.0232,0.66984 -1.74569,2.09748 c -0.96013,1.15363 -2.72965,3.34552 -3.93226,4.87088 -1.20261,1.52536 -2.30771,2.77885 -2.45578,2.78553 -0.14806,0.007 -1.48896,-0.62874 -2.97977,-1.41206 -3.25629,-1.71095 -6.70898,-2.76208 -10.66777,-3.24766 -5.17735,-0.63507 -8.31673,0.58839 -8.31673,3.24112 0,2.26126 1.68223,3.06317 10.49792,5.00428 10.31896,2.27212 14.76078,4.06473 17.87917,7.21559 4.68693,4.73572 3.9981,14.24059 -1.37659,18.99512 -4.34348,3.8423 -9.44735,5.4539 -17.85776,5.63878 -3.08568,0.0678 -6.63888,-0.0292 -7.896,-0.21553 z M 60.875743,126.4999 v -25.16742 l 14.649165,0.006 c 15.915318,0.007 18.118012,0.20054 22.759632,2.00211 1.367741,0.53086 2.4868,1.03478 2.4868,1.11982 0,0.085 -0.47026,0.68783 -1.045019,1.33956 -1.520388,1.72398 -3.026439,5.16804 -3.559639,8.14025 -0.570175,3.17829 -0.02024,6.9489 1.420994,9.74326 1.147007,2.22387 3.833934,5.14062 5.653414,6.13697 0.69875,0.38263 1.27046,0.90884 1.27046,1.16933 0,0.70617 -2.89311,2.55446 -5.881618,3.75754 -4.399026,1.77091 -7.050571,2.21249 -14.577058,2.42758 l -6.952356,0.19868 -0.112489,7.04913 -0.112489,7.04912 -7.999899,0.0976 -7.999898,0.0976 z m 27.096084,-0.76913 c 5.538261,-1.01082 7.863447,-6.63213 4.270757,-10.32486 -1.700163,-1.74751 -3.91904,-2.3084 -9.860621,-2.4926 l -5.298634,-0.16427 v 6.45222 c 0,3.54873 0.124674,6.56005 0.277054,6.69184 0.452475,0.39133 8.229806,0.27236 10.611444,-0.16233 z"
         id="path1904" />
      <path
         style="fill:#a3a3a3;fill-opacity:1;stroke-width:0.386483"
         d="m 118.16852,152.0095 c -7.06051,-0.96964 -13.21778,-3.07848 -18.267993,-6.25669 l -2.449477,-1.54152 2.66283,-2.83923 c 1.46456,-1.56157 3.48551,-3.6362 4.49102,-4.61028 l 1.82818,-1.77105 1.84439,1.09371 c 4.65013,2.75748 9.72033,4.31781 15.14293,4.66014 5.62317,0.35501 8.51938,-0.80801 8.51938,-3.42108 0,-2.46871 -1.48453,-3.15564 -11.42843,-5.28822 -9.2165,-1.97657 -12.3843,-3.19216 -16.05292,-6.16003 -3.07048,-2.48398 -3.89488,-4.48355 -3.89488,-9.44697 0,-3.87778 0.0795,-4.27784 1.28603,-6.46963 3.77737,-6.86212 13.08161,-10.33567 25.0445,-9.34986 2.32855,0.19189 5.39822,0.60184 6.8215,0.91099 2.7099,0.58864 10.18776,3.6506 11.89128,4.86913 l 0.99192,0.70952 -1.72818,2.0591 c -0.95049,1.13251 -2.6873,3.27216 -3.85957,4.75478 -1.17227,1.48262 -2.17896,2.74766 -2.23709,2.81119 -0.0581,0.0635 -1.47934,-0.55771 -3.15825,-1.38053 -7.32693,-3.59091 -15.45678,-4.54036 -18.24311,-2.13055 -0.51989,0.44965 -0.80923,1.19154 -0.80923,2.07494 0,2.42767 1.48871,3.14952 10.59727,5.13841 9.65224,2.1076 13.58465,3.63623 17.02708,6.61884 2.81116,2.43566 3.75248,4.68789 3.74999,8.97226 -0.002,4.63415 -1.17896,7.42347 -4.37764,10.38082 -4.30384,3.97913 -9.21081,5.57267 -17.85396,5.79808 -2.85711,0.0745 -6.24901,-0.009 -7.53757,-0.18627 z m -57.006842,-0.58963 c -0.157263,-0.13602 -0.285935,-11.4732 -0.285935,-25.19375 v -24.94645 l 15.895902,0.13857 c 13.892441,0.12111 16.183982,0.22004 18.181587,0.78491 1.862302,0.5266 5.220788,1.8044 5.725278,2.17828 0.0632,0.0469 -0.54515,0.93356 -1.351951,1.97046 -3.293182,4.23239 -4.337936,11.29614 -2.365394,15.99281 1.22711,2.92177 3.420035,5.67325 5.655065,7.09542 1.0246,0.65197 1.8702,1.32268 1.87912,1.49047 0.0302,0.56918 -2.38297,2.24698 -4.902177,3.40826 -4.064272,1.87352 -8.08788,2.59756 -15.748101,2.83384 l -6.744579,0.20803 -0.112477,7.04568 -0.112476,7.04569 -7.713964,0.0975 c -4.24268,0.0536 -7.842635,-0.0137 -7.999898,-0.14976 z m 25.244317,-25.45099 c 3.739668,-0.61883 5.111146,-1.25061 6.488338,-2.98891 0.811011,-1.02366 1.019952,-1.74028 1.019952,-3.49823 0,-1.86914 -0.180366,-2.41538 -1.166918,-3.53404 -2.052732,-2.32761 -3.867915,-2.87127 -10.167177,-3.04515 l -5.515986,-0.15226 0.113458,6.60136 0.113457,6.60136 2.285685,0.21098 c 1.257127,0.11604 2.596501,0.23735 2.97639,0.26957 0.37989,0.0322 2.113648,-0.17688 3.852801,-0.46468 z"
         id="path1902" />
      <path
         style="fill:#8c8c8c;fill-opacity:1;stroke-width:0.386483"
         d="m 117.39451,151.86386 c -4.31315,-0.6664 -8.88793,-1.8912 -11.84401,-3.17097 -3.00396,-1.30051 -7.688214,-4.12282 -7.688214,-4.63222 0,-0.36305 7.613244,-8.38937 8.311764,-8.76275 0.19985,-0.10682 1.63739,0.51817 3.19454,1.38887 1.55715,0.87071 3.57922,1.8549 4.49349,2.18711 2.84537,1.03387 8.18606,1.99004 11.13009,1.99267 4.58524,0.004 6.94761,-1.20461 6.94761,-3.55474 0,-2.44524 -1.51189,-3.14908 -11.25802,-5.24104 -10.03653,-2.15429 -14.57433,-4.12051 -17.70652,-7.67219 -1.9844,-2.25015 -2.75681,-4.90249 -2.52017,-8.65385 0.30852,-4.89083 2.1789,-8.23364 6.07604,-10.85934 4.74751,-3.19863 8.92032,-4.27178 16.61043,-4.27178 7.80999,0 13.0287,1.08856 18.90837,3.94404 5.14449,2.49844 5.02783,1.90115 1.26834,6.49354 -1.80107,2.2001 -3.6487,4.38587 -4.10584,4.85727 l -0.83116,0.85708 -2.70126,-1.43253 c -7.44833,-3.94999 -17.96361,-4.58416 -18.97883,-1.14461 -0.9211,3.12068 0.67428,4.13976 9.42051,6.01757 9.98147,2.14301 14.45182,3.78606 17.67714,6.49714 4.26209,3.58256 5.38899,9.101 3.08443,15.10454 -1.61377,4.20398 -5.84755,7.44569 -11.95176,9.15118 -3.43757,0.96044 -4.79502,1.1453 -9.22539,1.25636 -3.19403,0.0801 -6.39517,-0.0553 -8.31158,-0.35135 z m -55.168135,-0.5044 -1.350632,-0.11263 v -24.95717 -24.95718 l 14.441375,0.006 c 15.197359,0.007 17.328632,0.176 22.129589,1.75926 3.585893,1.18255 3.544673,1.11428 1.927514,3.19265 -4.013251,5.15782 -4.569251,12.83168 -1.330227,18.35987 1.06343,1.81501 3.696496,4.43026 5.541816,5.50431 1.31922,0.76784 0.87317,1.45955 -2.01787,3.12924 -4.70459,2.7171 -11.187441,3.98243 -20.432714,3.98807 l -4.467476,0.003 v 7.00876 7.00877 l -1.350632,0.057 c -2.680415,0.11317 -11.770398,0.12015 -13.090743,0.0101 z M 88.163762,125.769 c 5.614366,-1.04994 7.819014,-6.80011 4.006532,-10.44985 -2.069152,-1.98083 -4.514972,-2.53807 -10.566573,-2.40745 l -4.728181,0.10205 -0.118802,5.75078 c -0.06534,3.16293 -0.01758,6.10587 0.106118,6.53987 0.183329,0.64316 0.589578,0.81793 2.196702,0.94506 2.656556,0.21015 6.494317,0.008 9.104204,-0.48046 z"
         id="path1900" />
      <path
         style="fill:#767676;fill-opacity:1;stroke-width:0.386483"
         d="m 117.6023,151.82591 c -4.57819,-0.6522 -8.93563,-1.78085 -11.98058,-3.10319 -2.67801,-1.16298 -7.759434,-4.21111 -7.759434,-4.65455 0,-0.25753 8.268014,-8.94986 8.512964,-8.94986 0.0719,0 1.13127,0.58847 2.35423,1.30771 3.05191,1.79489 5.86833,2.87579 9.70382,3.72419 5.70125,1.2611 11.96823,0.73602 13.10302,-1.09783 0.83709,-1.35276 0.47615,-3.09842 -0.83845,-4.05511 -1.32828,-0.96665 -2.6839,-1.35861 -10.80989,-3.12552 -14.44983,-3.14196 -19.52669,-7.11168 -19.52079,-15.26376 0.003,-4.71078 1.72826,-8.21924 5.48432,-11.15538 4.31773,-3.37521 9.52188,-4.83898 17.20407,-4.83898 5.67484,0 9.81648,0.57131 13.97363,1.92756 2.94122,0.95955 8.16235,3.44749 8.94379,4.26183 0.35186,0.36668 -0.30124,1.38812 -2.82745,4.42205 -1.80676,2.16987 -3.58638,4.31666 -3.95472,4.77063 l -0.66971,0.8254 -1.31668,-0.74948 c -8.84561,-5.03514 -19.60558,-5.67304 -20.89244,-1.2386 -0.63539,2.18952 2.28448,3.81316 9.60188,5.33928 9.95097,2.07538 14.64294,3.82305 18.04931,6.72303 3.71859,3.16578 4.95806,7.93507 3.42491,13.17861 -1.58749,5.42941 -5.57242,8.98012 -12.12369,10.80262 -5.51211,1.53341 -11.3569,1.84757 -17.66211,0.94935 z M 60.875743,126.28575 v -25.00662 l 15.688112,0.13918 c 16.748276,0.14859 16.829983,0.15649 22.233484,2.14987 2.200731,0.81186 2.311301,0.98312 1.197458,1.85493 -1.387519,1.08601 -3.372171,5.38637 -3.881974,8.41149 -0.994028,5.89845 0.974903,11.06079 5.735917,15.03901 l 2.72837,2.27978 -1.34493,1.06241 c -0.73971,0.58433 -2.51386,1.56012 -3.942566,2.16842 -4.248167,1.80877 -8.283465,2.51444 -15.855508,2.77272 l -6.766356,0.2308 v 6.95232 6.95232 h -7.896003 -7.896004 z m 26.199331,-0.33599 c 3.578049,-0.65096 5.220106,-1.58431 6.255143,-3.55543 1.487749,-2.83327 0.818516,-5.64345 -1.821354,-7.64809 -1.95599,-1.48532 -4.773268,-1.99211 -10.269742,-1.84738 l -4.363581,0.11489 v 6.46963 6.46963 l 1.662316,0.21856 c 2.998529,0.39425 5.509607,0.32901 8.537218,-0.22181 z"
         id="path1898" />
      <path
         style="fill:#606060;fill-opacity:1;stroke-width:0.386483"
         d="m 118.01787,151.841 c -5.11049,-0.70483 -8.41693,-1.54476 -12.05179,-3.06149 -3.7652,-1.57111 -7.920922,-4.13642 -7.845918,-4.84325 0.0432,-0.40708 7.923598,-8.81795 8.261808,-8.81795 0.0682,0 1.12455,0.58316 2.34751,1.29592 3.41301,1.98917 5.64589,2.85949 9.47141,3.69175 8.31168,1.80825 15.13903,0.17462 13.90811,-3.32788 -0.75276,-2.1419 -2.17564,-2.73819 -11.28895,-4.73094 -13.0138,-2.84563 -18.1455,-5.78003 -19.86193,-11.35739 -1.188222,-3.86099 -0.48625,-8.75483 1.7236,-12.01611 1.33945,-1.97676 4.69353,-4.61109 7.35736,-5.77855 6.72313,-2.946517 19.05145,-3.072563 27.30322,-0.27916 2.24856,0.76118 8.06788,3.59596 8.64117,4.20939 0.29067,0.31102 -0.72528,1.80265 -3.51158,5.15574 l -3.92057,4.71811 -3.08071,-1.51839 c -4.51782,-2.2267 -8.38708,-3.20652 -12.74625,-3.22776 -4.02593,-0.0196 -5.55952,0.57833 -6.28037,2.44868 -1.01577,2.63554 1.55037,4.15561 10.09326,5.97883 7.57396,1.61643 11.27689,2.74795 14.03111,4.28755 4.51115,2.52171 6.18927,4.58878 7.20169,8.8709 0.95971,4.05915 -0.7793,9.60405 -3.97003,12.65857 -5.2039,4.98176 -15.01251,7.12875 -25.78215,5.64343 z M 60.875743,126.31243 v -24.97995 l 14.025796,0.0125 c 14.88196,0.0133 18.028529,0.26058 22.677671,1.78216 2.64748,0.86647 3.22159,1.49733 2.227338,2.44751 -1.09097,1.04262 -3.148967,5.17242 -3.597972,7.2201 -1.376626,6.27806 0.57618,11.8382 5.648444,16.08258 l 2.63572,2.20552 -1.07747,0.93187 c -1.5005,1.29774 -4.380539,2.63694 -8.046458,3.74153 -2.783566,0.83873 -3.938934,0.96052 -10.805058,1.139 l -7.688214,0.19984 -0.11268,7.09862 -0.11268,7.09862 h -7.887219 -7.887218 z m 26.298492,-0.34927 c 3.344934,-0.61301 5.009682,-1.54799 6.12609,-3.44063 1.860689,-3.15442 0.45717,-6.99808 -3.140823,-8.6014 -1.882258,-0.83876 -2.461508,-0.90738 -7.6601,-0.90738 H 76.87554 v 6.4661 6.4661 l 1.246737,0.23057 c 2.213304,0.40933 6.16212,0.31625 9.051958,-0.21336 z"
         id="path1896" />
      <path
         style="fill:#494949;fill-opacity:1;stroke-width:0.386483"
         d="m 118.84903,151.98288 c -6.91163,-0.822 -13.96122,-3.13644 -18.49327,-6.07149 -1.257126,-0.81415 -2.334195,-1.5989 -2.393489,-1.74388 -0.09013,-0.22039 6.256369,-7.07973 7.986419,-8.63177 0.44549,-0.39966 0.87941,-0.27001 2.56253,0.76568 4.95797,3.05083 10.30458,4.53713 16.36371,4.54895 2.90494,0.006 3.82522,-0.13653 5.18072,-0.80053 3.09009,-1.51369 2.8678,-4.0427 -0.50553,-5.75142 -0.69511,-0.35209 -4.22877,-1.29116 -7.85257,-2.08681 -14.1802,-3.11343 -18.66526,-5.60287 -20.68339,-11.48034 -1.235131,-3.59714 -0.50695,-8.84849 1.67313,-12.06584 2.33509,-3.4461 7.6284,-6.44202 13.31551,-7.53631 3.89882,-0.7502 13.04039,-0.54798 17.18371,0.38011 2.95265,0.66138 10.33832,3.60506 12.15193,4.84335 l 1.13908,0.77774 -2.2018,2.58229 c -1.21099,1.42026 -2.99642,3.59771 -3.96763,4.83876 l -1.76583,2.25647 -1.1904,-0.7331 c -2.26728,-1.3963 -7.32535,-3.24972 -10.41365,-3.81588 -5.57683,-1.02236 -9.59197,-0.20881 -10.55898,2.13945 -1.06479,2.5857 1.62102,4.18482 10.03971,5.97758 10.07119,2.14467 13.60599,3.46183 17.31096,6.45055 4.48576,3.61856 5.45395,9.33903 2.66989,15.77464 -1.06494,2.46169 -4.54686,5.64344 -7.67719,7.01535 -4.88104,2.13919 -13.32755,3.14496 -19.87357,2.36645 z M 60.875743,126.31243 v -24.97995 l 13.818006,3.6e-4 c 10.122461,3.6e-4 14.72025,0.13782 17.191574,0.51398 3.514034,0.53487 8.125447,2.00494 8.382657,2.6723 0.0819,0.2124 -0.356556,0.95926 -0.974265,1.65969 -1.696647,1.92385 -3.115875,5.6999 -3.375736,8.98163 -0.451951,5.70761 1.244588,9.72573 5.723151,13.55484 l 2.81055,2.40299 -1.01996,0.88214 c -1.30162,1.12574 -5.937857,3.22581 -8.894067,4.02874 -1.641334,0.44579 -4.453051,0.68353 -9.973899,0.84333 l -7.688214,0.22266 -0.11268,7.09862 -0.11268,7.09862 h -7.887219 -7.887218 z m 26.389275,-0.3099 c 3.169789,-0.5903 4.063845,-1.0156 5.457826,-2.59625 1.540835,-1.74716 1.806369,-4.46089 0.656486,-6.70914 -0.627304,-1.2265 -1.338027,-1.88911 -2.851567,-2.65853 -1.919385,-0.97574 -2.300297,-1.03079 -7.947535,-1.14859 l -5.931532,-0.12373 0.113424,6.57745 0.11342,6.57745 1.038948,0.24965 c 1.726162,0.41478 6.700278,0.32524 9.35053,-0.16831 z"
         id="path1894" />
      <path
         style="fill:#333333;fill-opacity:1;stroke-width:0.386483"
         d="m 118.22566,151.82128 c -4.81597,-0.6416 -9.16209,-1.76539 -12.60225,-3.25859 -3.17288,-1.37719 -7.553334,-3.9641 -7.553334,-4.46067 0,-0.17404 1.860012,-2.26524 4.133364,-4.64713 3.93806,-4.12607 4.17369,-4.30546 4.98695,-3.79674 2.22548,1.39216 6.93762,3.49321 9.37296,4.17923 3.88009,1.09301 11.27985,1.32966 13.29805,0.42529 1.69078,-0.75764 2.68063,-2.29563 2.30672,-3.58409 -0.60173,-2.07353 -2.44613,-2.7901 -13.1113,-5.09389 -12.33991,-2.66557 -17.75148,-6.52241 -18.54644,-13.2181 -1.005916,-8.4725 5.21074,-15.32789 15.63739,-17.24405 5.80775,-1.06732 14.51051,-0.47339 20.46802,1.39687 3.15352,0.98999 9.04727,3.80794 9.33922,4.46532 0.10762,0.24233 -1.00743,1.85974 -2.47791,3.59424 -1.47047,1.7345 -3.16824,3.83288 -3.77281,4.66307 l -1.09924,1.50944 -2.61242,-1.37264 c -7.22807,-3.79784 -16.44902,-4.74392 -18.99142,-1.94853 -0.46939,0.5161 -0.85344,1.36579 -0.85344,1.88819 0,2.26096 2.09823,3.3045 10.18169,5.06382 10.65489,2.31897 15.0489,4.06885 18.34215,7.30463 2.16504,2.12726 3.17509,4.83918 3.1523,8.46378 -0.0552,8.77585 -6.65386,14.40247 -18.57206,15.83614 -3.95656,0.47595 -6.49711,0.4378 -11.02619,-0.16559 z M 60.875743,128.5217 c 0,-12.52388 0.120148,-23.76486 0.266993,-24.97995 l 0.266989,-2.20927 13.551017,0.0125 c 14.315617,0.0133 17.628772,0.27576 22.070386,1.74873 3.683512,1.22156 3.643222,1.16093 2.128301,3.20272 -1.969404,2.65435 -3.031093,5.59536 -3.268272,9.05353 -0.398004,5.80311 1.456401,10.04191 5.951723,13.60446 l 2.68208,2.12554 -1.47657,1.12126 c -0.81212,0.6167 -2.44975,1.54777 -3.639193,2.06906 -2.087558,0.9149 -2.999048,1.21126 -6.118281,1.98926 -0.79999,0.19954 -4.820718,0.46916 -8.934952,0.59917 l -7.480424,0.23638 -0.11268,7.09862 -0.11268,7.09862 h -7.887219 -7.887218 z m 25.992883,-2.42247 c 4.852165,-0.77577 6.92342,-2.57466 7.149882,-6.20972 0.188432,-3.02464 -0.930723,-4.71249 -4.022848,-6.06705 -2.126132,-0.93139 -2.576242,-0.98842 -7.801484,-0.98842 h -5.545177 l 0.113271,6.54357 0.11327,6.54358 1.038948,0.24965 c 1.642792,0.39475 6.268637,0.35775 8.954138,-0.0716 z"
         id="path1892" />
    </g>
  </g>
</svg>
